<?xml version="1.0" encoding="utf-8" standalone="no"?>
<!DOCTYPE svg PUBLIC "-//W3C//DTD SVG 1.1//EN"
  "http://www.w3.org/Graphics/SVG/1.1/DTD/svg11.dtd">
<!-- Created with matplotlib (https://matplotlib.org/) -->
<svg height="432pt" version="1.1" viewBox="0 0 504 432" width="504pt" xmlns="http://www.w3.org/2000/svg" xmlns:xlink="http://www.w3.org/1999/xlink">
 <metadata>
  <rdf:RDF xmlns:cc="http://creativecommons.org/ns#" xmlns:dc="http://purl.org/dc/elements/1.1/" xmlns:rdf="http://www.w3.org/1999/02/22-rdf-syntax-ns#">
   <cc:Work>
    <dc:type rdf:resource="http://purl.org/dc/dcmitype/StillImage"/>
    <dc:date>2021-10-01T12:06:03.593975</dc:date>
    <dc:format>image/svg+xml</dc:format>
    <dc:creator>
     <cc:Agent>
      <dc:title>Matplotlib v3.3.4, https://matplotlib.org/</dc:title>
     </cc:Agent>
    </dc:creator>
   </cc:Work>
  </rdf:RDF>
 </metadata>
 <defs>
  <style type="text/css">*{stroke-linecap:butt;stroke-linejoin:round;}</style>
 </defs>
 <g id="figure_1">
  <g id="patch_1">
   <path d="M 0 432 
L 504 432 
L 504 0 
L 0 0 
z
" style="fill:#ffffff;"/>
  </g>
  <g id="axes_1">
   <g id="patch_2">
    <path d="M 63 384.48 
L 453.6 384.48 
L 453.6 51.84 
L 63 51.84 
z
" style="fill:#ffffff;"/>
   </g>
   <g id="line2d_1">
    <path clip-path="url(#p666488fb93)" d="M 63 353.058881 
L 126 353.058881 
" style="fill:none;stroke:#c0c0c0;stroke-dasharray:0.75,1.5;stroke-dashoffset:0;stroke-width:1.5;"/>
   </g>
   <g id="line2d_2">
    <path clip-path="url(#p666488fb93)" d="M 126 433 
L 126 353.058881 
" style="fill:none;stroke:#c0c0c0;stroke-dasharray:0.75,1.5;stroke-dashoffset:0;stroke-width:1.5;"/>
   </g>
   <g id="line2d_3">
    <path clip-path="url(#p666488fb93)" d="M 63 332.577729 
L 352.8 332.577729 
" style="fill:none;stroke:#c0c0c0;stroke-dasharray:0.75,1.5;stroke-dashoffset:0;stroke-width:1.5;"/>
   </g>
   <g id="line2d_4">
    <path clip-path="url(#p666488fb93)" d="M 352.8 433 
L 352.8 332.577729 
" style="fill:none;stroke:#c0c0c0;stroke-dasharray:0.75,1.5;stroke-dashoffset:0;stroke-width:1.5;"/>
   </g>
   <g id="matplotlib.axis_1">
    <g id="xtick_1">
     <g id="line2d_5">
      <defs>
       <path d="M 0 0 
L 0 3.5 
" id="mcbcdc58d80" style="stroke:#000000;stroke-width:0.8;"/>
      </defs>
      <g>
       <use style="stroke:#000000;stroke-width:0.8;" x="63" xlink:href="#mcbcdc58d80" y="384.48"/>
      </g>
     </g>
     <g id="text_1">
      <!-- 0.08 -->
      <g transform="translate(53.5375 398.58)scale(0.1 -0.1)">
       <defs>
        <path d="M 27.59375 -0.734375 
Q 17.625 -0.734375 12.46875 4.578125 
Q 7.328125 9.90625 7.328125 19.4375 
L 7.328125 51.703125 
Q 7.328125 61.28125 12.5 66.578125 
Q 17.671875 71.875 27.59375 71.875 
Q 37.546875 71.875 42.703125 66.59375 
Q 47.859375 61.328125 47.859375 51.703125 
L 47.859375 19.4375 
Q 47.859375 9.859375 42.671875 4.5625 
Q 37.5 -0.734375 27.59375 -0.734375 
z
M 27.59375 8.734375 
Q 32.859375 8.734375 35.375 11.5 
Q 37.890625 14.265625 37.890625 19.4375 
L 37.890625 51.703125 
Q 37.890625 56.890625 35.390625 59.640625 
Q 32.90625 62.40625 27.59375 62.40625 
Q 22.265625 62.40625 19.765625 59.640625 
Q 17.28125 56.890625 17.28125 51.703125 
L 17.28125 19.4375 
Q 17.28125 14.265625 19.796875 11.5 
Q 22.3125 8.734375 27.59375 8.734375 
z
" id="Bahnschrift-48"/>
        <path d="M 6.109375 10.453125 
L 16.546875 10.453125 
L 16.546875 0 
L 6.109375 0 
z
" id="Bahnschrift-46"/>
        <path d="M 28.125 -0.734375 
Q 21.6875 -0.734375 16.796875 1.703125 
Q 11.921875 4.15625 9.25 8.625 
Q 6.59375 13.09375 6.59375 19 
L 6.59375 20.171875 
Q 6.59375 25.484375 9.25 30.171875 
Q 11.921875 34.859375 16.359375 37.25 
Q 12.59375 39.3125 10.328125 43.1875 
Q 8.0625 47.078125 8.0625 51.375 
L 8.0625 53.078125 
Q 8.0625 58.640625 10.546875 62.859375 
Q 13.03125 67.09375 17.578125 69.40625 
Q 22.125 71.734375 28.125 71.734375 
Q 34.125 71.734375 38.671875 69.40625 
Q 43.21875 67.09375 45.703125 62.859375 
Q 48.1875 58.640625 48.1875 53.078125 
L 48.1875 51.375 
Q 48.1875 46.96875 45.875 43.109375 
Q 43.5625 39.265625 39.75 37.25 
Q 44.234375 34.8125 46.9375 30.140625 
Q 49.65625 25.484375 49.65625 20.171875 
L 49.65625 19 
Q 49.65625 13.09375 47 8.625 
Q 44.34375 4.15625 39.453125 1.703125 
Q 34.578125 -0.734375 28.125 -0.734375 
z
M 28.125 8.84375 
Q 31.59375 8.84375 34.21875 10.203125 
Q 36.859375 11.578125 38.296875 14.03125 
Q 39.75 16.5 39.75 19.734375 
L 39.75 20.40625 
Q 39.75 23.6875 38.296875 26.140625 
Q 36.859375 28.609375 34.21875 29.96875 
Q 31.59375 31.34375 28.125 31.34375 
Q 24.65625 31.34375 22.015625 29.96875 
Q 19.390625 28.609375 17.9375 26.125 
Q 16.5 23.640625 16.5 20.359375 
L 16.5 19.625 
Q 16.5 16.40625 17.9375 13.96875 
Q 19.390625 11.53125 22.015625 10.1875 
Q 24.65625 8.84375 28.125 8.84375 
z
M 28.125 40.921875 
Q 31.109375 40.921875 33.390625 42.203125 
Q 35.6875 43.5 36.953125 45.890625 
Q 38.234375 48.296875 38.234375 51.421875 
L 38.234375 52.09375 
Q 38.234375 55.078125 36.953125 57.375 
Q 35.6875 59.671875 33.390625 60.90625 
Q 31.109375 62.15625 28.125 62.15625 
Q 25.140625 62.15625 22.84375 60.90625 
Q 20.5625 59.671875 19.28125 57.375 
Q 18.015625 55.078125 18.015625 52.046875 
L 18.015625 51.3125 
Q 18.015625 48.25 19.28125 45.875 
Q 20.5625 43.5 22.84375 42.203125 
Q 25.140625 40.921875 28.125 40.921875 
z
" id="Bahnschrift-56"/>
       </defs>
       <use xlink:href="#Bahnschrift-48"/>
       <use x="55.175781" xlink:href="#Bahnschrift-46"/>
       <use x="77.832031" xlink:href="#Bahnschrift-48"/>
       <use x="133.007812" xlink:href="#Bahnschrift-56"/>
      </g>
     </g>
    </g>
    <g id="xtick_2">
     <g id="line2d_6">
      <g>
       <use style="stroke:#000000;stroke-width:0.8;" x="94.5" xlink:href="#mcbcdc58d80" y="384.48"/>
      </g>
     </g>
     <g id="text_2">
      <!-- 0.13 -->
      <g transform="translate(86.302344 398.58)scale(0.1 -0.1)">
       <defs>
        <path d="M 24.46875 0 
L 14.5 0 
L 14.5 60.15625 
L 4.390625 53.953125 
L 4.390625 64.265625 
L 14.5 71 
L 24.46875 71 
z
" id="Bahnschrift-49"/>
        <path d="M 25.6875 -0.734375 
Q 19.734375 -0.734375 15.1875 1.4375 
Q 10.640625 3.609375 7.875 7.734375 
Q 5.125 11.859375 4.390625 17.671875 
L 4.390625 17.671875 
L 14.546875 17.671875 
L 14.546875 17.671875 
Q 14.984375 14.65625 16.453125 12.703125 
Q 17.921875 10.75 20.234375 9.796875 
Q 22.5625 8.84375 25.6875 8.84375 
Q 30.609375 8.84375 33.34375 11.46875 
Q 36.078125 14.109375 36.078125 18.890625 
L 36.078125 21.046875 
Q 36.078125 26.375 33.484375 29.265625 
Q 30.90625 32.171875 26.171875 32.171875 
L 21.140625 32.171875 
L 21.140625 41.65625 
L 26.171875 41.65625 
Q 30.328125 41.65625 32.609375 44.140625 
Q 34.90625 46.625 34.90625 51.171875 
L 34.90625 53.375 
Q 34.90625 57.5625 32.484375 59.859375 
Q 30.078125 62.15625 25.640625 62.15625 
Q 23.09375 62.15625 21.09375 61.203125 
Q 19.09375 60.25 17.703125 58.265625 
Q 16.3125 56.296875 15.671875 53.328125 
L 15.671875 53.328125 
L 5.5625 53.328125 
L 5.5625 53.328125 
Q 6.546875 59.125 9.25 63.28125 
Q 11.96875 67.4375 16.109375 69.578125 
Q 20.265625 71.734375 25.640625 71.734375 
Q 34.8125 71.734375 39.84375 66.890625 
Q 44.875 62.0625 44.875 53.265625 
L 44.875 52.09375 
Q 44.875 46.78125 41.984375 42.828125 
Q 39.109375 38.875 33.84375 37.0625 
Q 39.65625 35.796875 42.84375 31.34375 
Q 46.046875 26.90625 46.046875 20.015625 
L 46.046875 18.84375 
Q 46.046875 12.640625 43.65625 8.25 
Q 41.265625 3.859375 36.6875 1.5625 
Q 32.125 -0.734375 25.6875 -0.734375 
z
" id="Bahnschrift-51"/>
       </defs>
       <use xlink:href="#Bahnschrift-48"/>
       <use x="55.175781" xlink:href="#Bahnschrift-46"/>
       <use x="77.832031" xlink:href="#Bahnschrift-49"/>
       <use x="111.083984" xlink:href="#Bahnschrift-51"/>
      </g>
     </g>
    </g>
    <g id="xtick_3">
     <g id="line2d_7">
      <g>
       <use style="stroke:#000000;stroke-width:0.8;" x="126" xlink:href="#mcbcdc58d80" y="384.48"/>
      </g>
     </g>
     <g id="text_3">
      <!-- 0.18 -->
      <g transform="translate(117.633594 398.58)scale(0.1 -0.1)">
       <use xlink:href="#Bahnschrift-48"/>
       <use x="55.175781" xlink:href="#Bahnschrift-46"/>
       <use x="77.832031" xlink:href="#Bahnschrift-49"/>
       <use x="111.083984" xlink:href="#Bahnschrift-56"/>
      </g>
     </g>
    </g>
    <g id="xtick_4">
     <g id="line2d_8">
      <g>
       <use style="stroke:#000000;stroke-width:0.8;" x="157.5" xlink:href="#mcbcdc58d80" y="384.48"/>
      </g>
     </g>
     <g id="text_4">
      <!-- 0.23 -->
      <g transform="translate(148.382031 398.58)scale(0.1 -0.1)">
       <defs>
        <path d="M 6.25 8.640625 
L 31 41.65625 
Q 33.15625 44.484375 34.34375 47.53125 
Q 35.546875 50.59375 35.546875 53.21875 
L 35.546875 53.328125 
Q 35.546875 57.5625 33.046875 59.90625 
Q 30.5625 62.25 25.984375 62.25 
Q 21.625 62.25 18.9375 59.6875 
Q 16.265625 57.125 15.671875 52.4375 
L 15.671875 52.390625 
L 5.375 52.390625 
L 5.375 52.4375 
Q 6.25 58.546875 8.953125 62.859375 
Q 11.671875 67.1875 15.96875 69.453125 
Q 20.265625 71.734375 25.875 71.734375 
Q 32.234375 71.734375 36.71875 69.5625 
Q 41.21875 67.390625 43.5625 63.234375 
Q 45.90625 59.078125 45.90625 53.21875 
L 45.90625 53.171875 
Q 45.90625 49.421875 44.34375 45.3125 
Q 42.78125 41.21875 39.984375 37.40625 
L 19.4375 9.46875 
L 46.296875 9.46875 
L 46.296875 0 
L 6.25 0 
z
" id="Bahnschrift-50"/>
       </defs>
       <use xlink:href="#Bahnschrift-48"/>
       <use x="55.175781" xlink:href="#Bahnschrift-46"/>
       <use x="77.832031" xlink:href="#Bahnschrift-50"/>
       <use x="129.492188" xlink:href="#Bahnschrift-51"/>
      </g>
     </g>
    </g>
    <g id="xtick_5">
     <g id="line2d_9">
      <g>
       <use style="stroke:#000000;stroke-width:0.8;" x="189" xlink:href="#mcbcdc58d80" y="384.48"/>
      </g>
     </g>
     <g id="text_5">
      <!-- 0.28 -->
      <g transform="translate(179.713281 398.58)scale(0.1 -0.1)">
       <use xlink:href="#Bahnschrift-48"/>
       <use x="55.175781" xlink:href="#Bahnschrift-46"/>
       <use x="77.832031" xlink:href="#Bahnschrift-50"/>
       <use x="129.492188" xlink:href="#Bahnschrift-56"/>
      </g>
     </g>
    </g>
    <g id="xtick_6">
     <g id="line2d_10">
      <g>
       <use style="stroke:#000000;stroke-width:0.8;" x="220.5" xlink:href="#mcbcdc58d80" y="384.48"/>
      </g>
     </g>
     <g id="text_6">
      <!-- 0.33 -->
      <g transform="translate(211.321094 398.58)scale(0.1 -0.1)">
       <use xlink:href="#Bahnschrift-48"/>
       <use x="55.175781" xlink:href="#Bahnschrift-46"/>
       <use x="77.832031" xlink:href="#Bahnschrift-51"/>
       <use x="130.712891" xlink:href="#Bahnschrift-51"/>
      </g>
     </g>
    </g>
    <g id="xtick_7">
     <g id="line2d_11">
      <g>
       <use style="stroke:#000000;stroke-width:0.8;" x="252" xlink:href="#mcbcdc58d80" y="384.48"/>
      </g>
     </g>
     <g id="text_7">
      <!-- 0.38 -->
      <g transform="translate(242.652344 398.58)scale(0.1 -0.1)">
       <use xlink:href="#Bahnschrift-48"/>
       <use x="55.175781" xlink:href="#Bahnschrift-46"/>
       <use x="77.832031" xlink:href="#Bahnschrift-51"/>
       <use x="130.712891" xlink:href="#Bahnschrift-56"/>
      </g>
     </g>
    </g>
    <g id="xtick_8">
     <g id="line2d_12">
      <g>
       <use style="stroke:#000000;stroke-width:0.8;" x="283.5" xlink:href="#mcbcdc58d80" y="384.48"/>
      </g>
     </g>
     <g id="text_8">
      <!-- 0.43 -->
      <g transform="translate(274.120313 398.58)scale(0.1 -0.1)">
       <defs>
        <path d="M 6.34375 19.53125 
L 30.171875 70.953125 
L 40.4375 70.953125 
L 17.1875 20.125 
L 52 20.125 
L 52 10.890625 
L 6.34375 10.890625 
z
M 36.96875 41.75 
L 46.6875 41.75 
L 46.6875 -0.046875 
L 36.96875 -0.046875 
z
" id="Bahnschrift-52"/>
       </defs>
       <use xlink:href="#Bahnschrift-48"/>
       <use x="55.175781" xlink:href="#Bahnschrift-46"/>
       <use x="77.832031" xlink:href="#Bahnschrift-52"/>
       <use x="134.716797" xlink:href="#Bahnschrift-51"/>
      </g>
     </g>
    </g>
    <g id="xtick_9">
     <g id="line2d_13">
      <g>
       <use style="stroke:#000000;stroke-width:0.8;" x="315" xlink:href="#mcbcdc58d80" y="384.48"/>
      </g>
     </g>
     <g id="text_9">
      <!-- 0.48 -->
      <g transform="translate(305.451563 398.58)scale(0.1 -0.1)">
       <use xlink:href="#Bahnschrift-48"/>
       <use x="55.175781" xlink:href="#Bahnschrift-46"/>
       <use x="77.832031" xlink:href="#Bahnschrift-52"/>
       <use x="134.716797" xlink:href="#Bahnschrift-56"/>
      </g>
     </g>
    </g>
    <g id="xtick_10">
     <g id="line2d_14">
      <g>
       <use style="stroke:#000000;stroke-width:0.8;" x="346.5" xlink:href="#mcbcdc58d80" y="384.48"/>
      </g>
     </g>
     <g id="text_10">
      <!-- 0.53 -->
      <g transform="translate(337.242969 398.58)scale(0.1 -0.1)">
       <defs>
        <path d="M 27.15625 -0.734375 
Q 21.78125 -0.734375 17.59375 1.359375 
Q 13.421875 3.46875 10.8125 7.46875 
Q 8.203125 11.46875 7.328125 17.09375 
L 7.328125 17.140625 
L 17.28125 17.140625 
L 17.28125 17.09375 
Q 17.828125 13.1875 20.40625 11.015625 
Q 23 8.84375 27.15625 8.84375 
Q 31.9375 8.84375 34.546875 12.03125 
Q 37.15625 15.234375 37.15625 21.046875 
L 37.15625 27 
Q 37.15625 32.765625 34.546875 35.953125 
Q 31.9375 39.15625 27.15625 39.15625 
Q 24.5625 39.15625 22.171875 37.6875 
Q 19.78125 36.234375 17.96875 33.59375 
L 8.890625 33.59375 
L 8.890625 71 
L 45.0625 71 
L 45.0625 61.53125 
L 18.84375 61.53125 
L 18.84375 45.5625 
Q 20.703125 47.078125 23 47.90625 
Q 25.296875 48.734375 27.6875 48.734375 
Q 33.84375 48.734375 38.203125 46.1875 
Q 42.578125 43.65625 44.84375 38.765625 
Q 47.125 33.890625 47.125 27 
L 47.125 21.046875 
Q 47.125 14.15625 44.78125 9.265625 
Q 42.4375 4.390625 37.9375 1.828125 
Q 33.453125 -0.734375 27.15625 -0.734375 
z
" id="Bahnschrift-53"/>
       </defs>
       <use xlink:href="#Bahnschrift-48"/>
       <use x="55.175781" xlink:href="#Bahnschrift-46"/>
       <use x="77.832031" xlink:href="#Bahnschrift-53"/>
       <use x="132.275391" xlink:href="#Bahnschrift-51"/>
      </g>
     </g>
    </g>
    <g id="xtick_11">
     <g id="line2d_15">
      <g>
       <use style="stroke:#000000;stroke-width:0.8;" x="378" xlink:href="#mcbcdc58d80" y="384.48"/>
      </g>
     </g>
     <g id="text_11">
      <!-- 0.58 -->
      <g transform="translate(368.574219 398.58)scale(0.1 -0.1)">
       <use xlink:href="#Bahnschrift-48"/>
       <use x="55.175781" xlink:href="#Bahnschrift-46"/>
       <use x="77.832031" xlink:href="#Bahnschrift-53"/>
       <use x="132.275391" xlink:href="#Bahnschrift-56"/>
      </g>
     </g>
    </g>
    <g id="xtick_12">
     <g id="line2d_16">
      <g>
       <use style="stroke:#000000;stroke-width:0.8;" x="409.5" xlink:href="#mcbcdc58d80" y="384.48"/>
      </g>
     </g>
     <g id="text_12">
      <!-- 0.63 -->
      <g transform="translate(400.399219 398.58)scale(0.1 -0.1)">
       <defs>
        <path d="M 25.640625 -0.734375 
Q 19.390625 -0.734375 14.9375 1.78125 
Q 10.5 4.296875 8.171875 9.109375 
Q 5.859375 13.921875 5.859375 20.703125 
L 5.859375 20.75 
Q 5.859375 24.703125 6.78125 29.046875 
Q 7.71875 33.40625 9.46875 37.59375 
Q 9.765625 38.328125 10.109375 39.03125 
Q 10.453125 39.75 10.796875 40.4375 
L 26.21875 71 
L 36.96875 71 
L 18.84375 35.59375 
L 18.890625 37.359375 
Q 20.125 39.65625 22.46875 40.921875 
Q 24.8125 42.1875 27.9375 42.1875 
Q 33.453125 42.1875 37.40625 39.6875 
Q 41.359375 37.203125 43.40625 32.4375 
Q 45.453125 27.6875 45.453125 21 
L 45.453125 20.953125 
Q 45.453125 14.109375 43.140625 9.21875 
Q 40.828125 4.34375 36.359375 1.796875 
Q 31.890625 -0.734375 25.640625 -0.734375 
z
M 25.640625 8.84375 
Q 30.375 8.84375 32.9375 11.765625 
Q 35.5 14.703125 35.5 20.125 
L 35.5 20.171875 
Q 35.5 26.125 32.8125 29.375 
Q 30.125 32.625 25.140625 32.625 
Q 20.703125 32.625 18.265625 29.34375 
Q 15.828125 26.078125 15.828125 20.125 
L 15.828125 20.0625 
Q 15.828125 14.65625 18.390625 11.75 
Q 20.953125 8.84375 25.640625 8.84375 
z
" id="Bahnschrift-54"/>
       </defs>
       <use xlink:href="#Bahnschrift-48"/>
       <use x="55.175781" xlink:href="#Bahnschrift-46"/>
       <use x="77.832031" xlink:href="#Bahnschrift-54"/>
       <use x="129.150391" xlink:href="#Bahnschrift-51"/>
      </g>
     </g>
    </g>
    <g id="xtick_13">
     <g id="line2d_17">
      <g>
       <use style="stroke:#000000;stroke-width:0.8;" x="441" xlink:href="#mcbcdc58d80" y="384.48"/>
      </g>
     </g>
     <g id="text_13">
      <!-- 0.68 -->
      <g transform="translate(431.730469 398.58)scale(0.1 -0.1)">
       <use xlink:href="#Bahnschrift-48"/>
       <use x="55.175781" xlink:href="#Bahnschrift-46"/>
       <use x="77.832031" xlink:href="#Bahnschrift-54"/>
       <use x="129.150391" xlink:href="#Bahnschrift-56"/>
      </g>
     </g>
    </g>
    <g id="text_14">
     <!-- Threshold -->
     <g transform="translate(236.032031 411.740938)scale(0.1 -0.1)">
      <defs>
       <path d="M 19.09375 65.1875 
L 29.046875 65.1875 
L 29.046875 0 
L 19.09375 0 
z
M -0.984375 71 
L 49.125 71 
L 49.125 61.53125 
L -0.984375 61.53125 
z
" id="Bahnschrift-84"/>
       <path d="M 7.8125 71 
L 17.78125 71 
L 17.78125 0 
L 7.8125 0 
z
M 38.578125 30.71875 
Q 38.578125 36.078125 35.796875 39 
Q 33.015625 41.9375 27.984375 41.9375 
Q 23.09375 41.9375 20.4375 39.390625 
Q 17.78125 36.859375 17.78125 32.234375 
L 16.75 42 
Q 19.09375 46.484375 22.875 48.953125 
Q 26.65625 51.421875 31.25 51.421875 
Q 39.5 51.421875 44.015625 46.015625 
Q 48.53125 40.625 48.53125 30.765625 
L 48.53125 0 
L 38.578125 0 
z
" id="Bahnschrift-104"/>
       <path d="M 7.8125 50.6875 
L 17.78125 50.6875 
L 17.78125 0 
L 7.8125 0 
z
M 35.6875 38.671875 
Q 34.375 40.28125 32.375 41.109375 
Q 30.375 41.9375 27.734375 41.9375 
Q 23 41.9375 20.390625 39.328125 
Q 17.78125 36.71875 17.78125 32.078125 
L 16.75 41.84375 
Q 19.09375 46.390625 22.796875 48.90625 
Q 26.515625 51.421875 31 51.421875 
Q 34.46875 51.421875 37.28125 50.421875 
Q 40.09375 49.421875 42.1875 47.46875 
L 35.6875 38.671875 
z
" id="Bahnschrift-114"/>
       <path d="M 28.5625 -0.734375 
Q 21.53125 -0.734375 16.546875 1.90625 
Q 11.578125 4.546875 8.953125 9.640625 
Q 6.34375 14.75 6.34375 21.96875 
L 6.34375 27.6875 
Q 6.34375 35.203125 8.859375 40.515625 
Q 11.375 45.84375 16.15625 48.625 
Q 20.953125 51.421875 27.6875 51.421875 
Q 34.03125 51.421875 38.515625 48.234375 
Q 43.015625 45.0625 45.375 39.0625 
Q 47.75 33.0625 47.75 24.65625 
L 47.75 21.34375 
L 13.578125 21.34375 
L 13.578125 29.34375 
L 38.28125 29.34375 
L 38.28125 29.34375 
Q 37.84375 35.546875 35.078125 38.984375 
Q 32.328125 42.4375 27.6875 42.4375 
Q 22.015625 42.4375 18.921875 38.71875 
Q 15.828125 35.015625 15.828125 28.21875 
L 15.828125 21.78125 
Q 15.828125 15.484375 19.140625 12.109375 
Q 22.46875 8.734375 28.5625 8.734375 
Q 31.59375 8.734375 34.5625 9.953125 
Q 37.546875 11.1875 39.890625 13.375 
L 39.890625 13.375 
L 46.4375 6.84375 
L 46.4375 6.84375 
Q 42.671875 3.21875 37.984375 1.234375 
Q 33.296875 -0.734375 28.5625 -0.734375 
z
" id="Bahnschrift-101"/>
       <path d="M 25.734375 -0.734375 
Q 21.234375 -0.734375 17.296875 0.140625 
Q 13.375 1.03125 9.953125 2.78125 
Q 6.546875 4.546875 3.65625 7.171875 
L 3.65625 7.171875 
L 9.578125 14.453125 
L 9.578125 14.453125 
Q 13.671875 11.328125 17.71875 9.765625 
Q 21.78125 8.203125 25.734375 8.203125 
Q 31.640625 8.203125 34.59375 10.03125 
Q 37.546875 11.859375 37.546875 15.53125 
Q 37.546875 17.96875 35.9375 19.1875 
Q 34.328125 20.40625 31.9375 20.8125 
Q 29.546875 21.234375 25.203125 21.578125 
Q 24.8125 21.578125 24.359375 21.59375 
Q 23.921875 21.625 23.53125 21.6875 
Q 23.34375 21.6875 23.140625 21.703125 
Q 22.953125 21.734375 22.75 21.734375 
Q 17.828125 22.125 14.40625 23.171875 
Q 10.984375 24.21875 8.71875 27.09375 
Q 6.453125 29.984375 6.453125 35.359375 
Q 6.453125 40.71875 8.640625 44.28125 
Q 10.84375 47.859375 15.1875 49.640625 
Q 19.53125 51.421875 26.078125 51.421875 
Q 30.03125 51.421875 33.609375 50.6875 
Q 37.203125 49.953125 40.46875 48.515625 
Q 43.75 47.078125 46.78125 44.875 
L 46.78125 44.875 
L 40.765625 37.59375 
L 40.765625 37.59375 
Q 36.96875 40.046875 33.28125 41.265625 
Q 29.59375 42.484375 26.078125 42.484375 
Q 21 42.484375 18.453125 40.75 
Q 15.921875 39.015625 15.921875 35.546875 
Q 15.921875 33.5 17.359375 32.46875 
Q 18.796875 31.453125 20.984375 31.109375 
Q 23.1875 30.765625 27.25 30.515625 
Q 27.546875 30.46875 27.859375 30.46875 
Q 28.171875 30.46875 28.515625 30.421875 
Q 28.65625 30.421875 28.796875 30.421875 
Q 28.953125 30.421875 29.109375 30.375 
Q 34.421875 30.03125 38.15625 28.953125 
Q 41.890625 27.875 44.421875 24.703125 
Q 46.96875 21.53125 46.96875 15.53125 
Q 46.96875 10.0625 44.625 6.46875 
Q 42.28125 2.875 37.5625 1.0625 
Q 32.859375 -0.734375 25.734375 -0.734375 
z
" id="Bahnschrift-115"/>
       <path d="M 27.25 -0.734375 
Q 20.65625 -0.734375 15.96875 1.84375 
Q 11.28125 4.4375 8.8125 9.390625 
Q 6.34375 14.359375 6.34375 21.34375 
L 6.34375 29.59375 
Q 6.34375 36.46875 8.8125 41.375 
Q 11.28125 46.296875 15.96875 48.859375 
Q 20.65625 51.421875 27.25 51.421875 
Q 33.84375 51.421875 38.53125 48.859375 
Q 43.21875 46.296875 45.671875 41.375 
Q 48.140625 36.46875 48.140625 29.59375 
L 48.140625 21.1875 
Q 48.140625 14.265625 45.671875 9.34375 
Q 43.21875 4.4375 38.53125 1.84375 
Q 33.84375 -0.734375 27.25 -0.734375 
z
M 27.25 8.734375 
Q 32.46875 8.734375 35.328125 12 
Q 38.1875 15.28125 38.1875 21.1875 
L 38.1875 29.59375 
Q 38.1875 35.5 35.328125 38.71875 
Q 32.46875 41.9375 27.25 41.9375 
Q 22.015625 41.9375 19.15625 38.71875 
Q 16.3125 35.5 16.3125 29.59375 
L 16.3125 21.1875 
Q 16.3125 15.28125 19.15625 12 
Q 22.015625 8.734375 27.25 8.734375 
z
" id="Bahnschrift-111"/>
       <path d="M 17.78125 13.09375 
Q 17.78125 11.234375 18.578125 10.234375 
Q 19.390625 9.234375 20.84375 9.234375 
L 25.53125 9.234375 
L 25.53125 -0.25 
L 19.671875 -0.25 
Q 14.015625 -0.25 10.90625 3.265625 
Q 7.8125 6.78125 7.8125 13.1875 
L 7.8125 71 
L 17.78125 71 
z
" id="Bahnschrift-108"/>
       <path d="M 36.625 71 
L 46.578125 71 
L 46.578125 0 
L 36.625 0 
z
M 23.875 -0.875 
Q 18.3125 -0.875 14.375 1.53125 
Q 10.453125 3.953125 8.390625 8.59375 
Q 6.34375 13.234375 6.34375 19.734375 
L 6.34375 30.90625 
Q 6.34375 37.453125 8.34375 42.09375 
Q 10.359375 46.734375 14.1875 49.140625 
Q 18.015625 51.5625 23.390625 51.5625 
Q 27.875 51.5625 31.609375 49.21875 
Q 35.359375 46.875 37.640625 42.625 
L 36.625 32.28125 
Q 36.625 35.5 35.453125 37.796875 
Q 34.28125 40.09375 32.046875 41.28125 
Q 29.828125 42.484375 26.65625 42.484375 
Q 21.734375 42.484375 19.015625 39.40625 
Q 16.3125 36.328125 16.3125 30.765625 
L 16.3125 19.734375 
Q 16.3125 14.203125 19.015625 11.203125 
Q 21.734375 8.203125 26.65625 8.203125 
Q 29.828125 8.203125 32.046875 9.4375 
Q 34.28125 10.6875 35.453125 13.03125 
Q 36.625 15.375 36.625 18.65625 
L 37.3125 7.953125 
Q 35.796875 4.203125 32.34375 1.65625 
Q 28.90625 -0.875 23.875 -0.875 
z
" id="Bahnschrift-100"/>
      </defs>
      <use xlink:href="#Bahnschrift-84"/>
      <use x="48.144531" xlink:href="#Bahnschrift-104"/>
      <use x="104.003906" xlink:href="#Bahnschrift-114"/>
      <use x="146.679688" xlink:href="#Bahnschrift-101"/>
      <use x="200.292969" xlink:href="#Bahnschrift-115"/>
      <use x="252.148438" xlink:href="#Bahnschrift-104"/>
      <use x="308.007812" xlink:href="#Bahnschrift-111"/>
      <use x="362.5" xlink:href="#Bahnschrift-108"/>
      <use x="391.455078" xlink:href="#Bahnschrift-100"/>
     </g>
    </g>
   </g>
   <g id="matplotlib.axis_2">
    <g id="ytick_1">
     <g id="line2d_18">
      <defs>
       <path d="M 0 0 
L -3.5 0 
" id="m4b51db3af5" style="stroke:#000000;stroke-width:0.8;"/>
      </defs>
      <g>
       <use style="stroke:#000000;stroke-width:0.8;" x="63" xlink:href="#m4b51db3af5" y="370.017391"/>
      </g>
     </g>
     <g id="text_15">
      <!-- 0.04 -->
      <g transform="translate(37.010937 373.567391)scale(0.1 -0.1)">
       <use xlink:href="#Bahnschrift-48"/>
       <use x="55.175781" xlink:href="#Bahnschrift-46"/>
       <use x="77.832031" xlink:href="#Bahnschrift-48"/>
       <use x="133.007812" xlink:href="#Bahnschrift-52"/>
      </g>
     </g>
    </g>
    <g id="ytick_2">
     <g id="line2d_19">
      <g>
       <use style="stroke:#000000;stroke-width:0.8;" x="63" xlink:href="#m4b51db3af5" y="312.166957"/>
      </g>
     </g>
     <g id="text_16">
      <!-- 0.06 -->
      <g transform="translate(37.56875 315.716957)scale(0.1 -0.1)">
       <use xlink:href="#Bahnschrift-48"/>
       <use x="55.175781" xlink:href="#Bahnschrift-46"/>
       <use x="77.832031" xlink:href="#Bahnschrift-48"/>
       <use x="133.007812" xlink:href="#Bahnschrift-54"/>
      </g>
     </g>
    </g>
    <g id="ytick_3">
     <g id="line2d_20">
      <g>
       <use style="stroke:#000000;stroke-width:0.8;" x="63" xlink:href="#m4b51db3af5" y="254.316522"/>
      </g>
     </g>
     <g id="text_17">
      <!-- 0.08 -->
      <g transform="translate(37.075 257.866522)scale(0.1 -0.1)">
       <use xlink:href="#Bahnschrift-48"/>
       <use x="55.175781" xlink:href="#Bahnschrift-46"/>
       <use x="77.832031" xlink:href="#Bahnschrift-48"/>
       <use x="133.007812" xlink:href="#Bahnschrift-56"/>
      </g>
     </g>
    </g>
    <g id="ytick_4">
     <g id="line2d_21">
      <g>
       <use style="stroke:#000000;stroke-width:0.8;" x="63" xlink:href="#m4b51db3af5" y="196.466087"/>
      </g>
     </g>
     <g id="text_18">
      <!-- 0.10 -->
      <g transform="translate(39.375 200.016087)scale(0.1 -0.1)">
       <use xlink:href="#Bahnschrift-48"/>
       <use x="55.175781" xlink:href="#Bahnschrift-46"/>
       <use x="77.832031" xlink:href="#Bahnschrift-49"/>
       <use x="111.083984" xlink:href="#Bahnschrift-48"/>
      </g>
     </g>
    </g>
    <g id="ytick_5">
     <g id="line2d_22">
      <g>
       <use style="stroke:#000000;stroke-width:0.8;" x="63" xlink:href="#m4b51db3af5" y="138.615652"/>
      </g>
     </g>
     <g id="text_19">
      <!-- 0.12 -->
      <g transform="translate(39.726562 142.165652)scale(0.1 -0.1)">
       <use xlink:href="#Bahnschrift-48"/>
       <use x="55.175781" xlink:href="#Bahnschrift-46"/>
       <use x="77.832031" xlink:href="#Bahnschrift-49"/>
       <use x="111.083984" xlink:href="#Bahnschrift-50"/>
      </g>
     </g>
    </g>
    <g id="ytick_6">
     <g id="line2d_23">
      <g>
       <use style="stroke:#000000;stroke-width:0.8;" x="63" xlink:href="#m4b51db3af5" y="80.765217"/>
      </g>
     </g>
     <g id="text_20">
      <!-- 0.14 -->
      <g transform="translate(39.203125 84.315217)scale(0.1 -0.1)">
       <use xlink:href="#Bahnschrift-48"/>
       <use x="55.175781" xlink:href="#Bahnschrift-46"/>
       <use x="77.832031" xlink:href="#Bahnschrift-49"/>
       <use x="111.083984" xlink:href="#Bahnschrift-52"/>
      </g>
     </g>
    </g>
    <g id="text_21">
     <!-- Average RMSE (eV) -->
     <g transform="translate(30.95 261.66625)rotate(-90)scale(0.1 -0.1)">
      <defs>
       <path d="M 28.125 71 
L 36.625 71 
L 62.796875 0 
L 52.046875 0 
L 32.375 57.28125 
L 12.703125 0 
L 1.953125 0 
z
M 14.015625 25.046875 
L 51.375 25.046875 
L 51.375 15.578125 
L 14.015625 15.578125 
z
" id="Bahnschrift-65"/>
       <path d="M 37.640625 50.6875 
L 48.046875 50.6875 
L 29 0 
L 21.484375 0 
L 2.4375 50.6875 
L 12.84375 50.6875 
L 25.25 14.5 
z
" id="Bahnschrift-118"/>
       <path d="M 36.421875 32.125 
Q 36.421875 37.109375 33.765625 39.859375 
Q 31.109375 42.625 26.21875 42.625 
Q 23.1875 42.625 20.28125 41.6875 
Q 17.390625 40.765625 15.140625 39.109375 
L 7.859375 44.09375 
Q 10.75 47.5625 15.453125 49.484375 
Q 20.171875 51.421875 25.921875 51.421875 
Q 32.234375 51.421875 36.71875 49.1875 
Q 41.21875 46.96875 43.5625 42.75 
Q 45.90625 38.53125 45.90625 32.5625 
L 45.90625 0 
L 36.421875 0 
z
M 24.03125 -0.734375 
Q 14.65625 -0.734375 10.015625 3.140625 
Q 5.375 7.03125 5.375 14.9375 
Q 5.375 22.46875 9.625 26.21875 
Q 13.875 29.984375 22.46875 29.984375 
L 36.859375 29.984375 
L 37.546875 21.96875 
L 22.515625 21.96875 
Q 18.609375 21.96875 16.671875 20.234375 
Q 14.75 18.5 14.75 14.9375 
Q 14.75 11.078125 17.3125 9.21875 
Q 19.875 7.375 25.09375 7.375 
Q 30.8125 7.375 33.609375 8.59375 
Q 36.421875 9.8125 36.421875 12.40625 
L 37.453125 5.28125 
Q 36.140625 3.21875 34.203125 1.90625 
Q 32.28125 0.59375 29.734375 -0.0625 
Q 27.203125 -0.734375 24.03125 -0.734375 
z
" id="Bahnschrift-97"/>
       <path d="M 24.8125 -20.609375 
Q 19.09375 -20.609375 14.578125 -18.484375 
Q 10.0625 -16.359375 7.5625 -12.5 
L 7.5625 -12.5 
L 14.3125 -6.390625 
L 14.3125 -6.390625 
Q 16.265625 -9.078125 18.96875 -10.546875 
Q 21.6875 -12.015625 24.65625 -12.015625 
Q 30.375 -12.015625 33.5 -8.859375 
Q 36.625 -5.71875 36.625 0.046875 
L 36.625 50.6875 
L 46.578125 50.6875 
L 46.578125 1.515625 
Q 46.578125 -5.46875 44.015625 -10.453125 
Q 41.453125 -15.4375 36.5625 -18.015625 
Q 31.6875 -20.609375 24.8125 -20.609375 
z
M 23.875 -0.875 
Q 18.3125 -0.875 14.375 1.53125 
Q 10.453125 3.953125 8.390625 8.59375 
Q 6.34375 13.234375 6.34375 19.734375 
L 6.34375 30.90625 
Q 6.34375 37.453125 8.34375 42.09375 
Q 10.359375 46.734375 14.1875 49.140625 
Q 18.015625 51.5625 23.390625 51.5625 
Q 27.875 51.5625 31.609375 49.21875 
Q 35.359375 46.875 37.640625 42.625 
L 36.625 32.28125 
Q 36.625 35.5 35.453125 37.796875 
Q 34.28125 40.09375 32.046875 41.28125 
Q 29.828125 42.484375 26.65625 42.484375 
Q 21.734375 42.484375 19.015625 39.40625 
Q 16.3125 36.328125 16.3125 30.765625 
L 16.3125 19.734375 
Q 16.3125 14.203125 19.015625 11.203125 
Q 21.734375 8.203125 26.65625 8.203125 
Q 29.828125 8.203125 32.046875 9.4375 
Q 34.28125 10.6875 35.453125 13.03125 
Q 36.625 15.375 36.625 18.65625 
L 37.3125 7.953125 
Q 35.796875 4.203125 32.34375 1.65625 
Q 28.90625 -0.875 23.875 -0.875 
z
" id="Bahnschrift-103"/>
       <path id="Bahnschrift-32"/>
       <path d="M 13.140625 39.5 
L 37.359375 39.5 
Q 40.1875 39.5 42.375 40.859375 
Q 44.578125 42.234375 45.765625 44.75 
Q 46.96875 47.265625 46.96875 50.53125 
L 46.96875 50.53125 
Q 46.96875 53.8125 45.765625 56.328125 
Q 44.578125 58.84375 42.40625 60.203125 
Q 40.234375 61.578125 37.359375 61.578125 
L 13.140625 61.578125 
L 13.140625 71.046875 
L 36.96875 71.046875 
Q 43.109375 71.046875 47.765625 68.5 
Q 52.4375 65.96875 55 61.296875 
Q 57.5625 56.640625 57.5625 50.53125 
L 57.5625 50.53125 
Q 57.5625 44.4375 54.96875 39.765625 
Q 52.390625 35.109375 47.71875 32.5625 
Q 43.0625 30.03125 36.96875 30.03125 
L 13.140625 30.03125 
z
M 8.796875 71.046875 
L 18.75 71.046875 
L 18.75 0 
L 8.796875 0 
z
M 32.46875 32.234375 
L 42.390625 34.46875 
L 60.546875 0 
L 48.734375 0 
z
" id="Bahnschrift-82"/>
       <path d="M 59.8125 71 
L 69.140625 71 
L 69.140625 0 
L 59.421875 0 
L 59.421875 53.171875 
L 59.90625 50.046875 
L 42.4375 9.859375 
L 35.5 9.859375 
L 18.015625 49.078125 
L 18.5 53.171875 
L 18.5 0 
L 8.796875 0 
L 8.796875 71 
L 18.109375 71 
L 38.96875 24.125 
z
" id="Bahnschrift-77"/>
       <path d="M 30.125 -0.734375 
Q 25 -0.734375 20.40625 0.234375 
Q 15.828125 1.21875 11.84375 3.171875 
Q 7.859375 5.125 4.390625 8.0625 
L 4.390625 8.0625 
L 10.59375 15.671875 
L 10.59375 15.671875 
Q 14.65625 12.15625 19.53125 10.390625 
Q 24.421875 8.640625 30.125 8.640625 
Q 37.84375 8.640625 42.09375 11.5 
Q 46.34375 14.359375 46.34375 19.578125 
L 46.34375 19.625 
Q 46.34375 23.34375 44.40625 25.515625 
Q 42.484375 27.6875 39.421875 28.734375 
Q 36.375 29.78125 31.546875 30.671875 
Q 31.390625 30.71875 31.21875 30.71875 
Q 31.0625 30.71875 30.90625 30.765625 
L 30.171875 30.90625 
Q 23.046875 32.125 18.578125 33.65625 
Q 14.109375 35.203125 10.9375 39.28125 
Q 7.765625 43.359375 7.765625 50.875 
L 7.765625 50.921875 
Q 7.765625 57.515625 10.71875 62.171875 
Q 13.671875 66.84375 19.328125 69.28125 
Q 25 71.734375 32.953125 71.734375 
Q 36.765625 71.734375 40.453125 70.890625 
Q 44.140625 70.0625 47.71875 68.421875 
Q 51.3125 66.796875 54.78125 64.3125 
L 54.78125 64.3125 
L 49.125 56.390625 
L 49.125 56.390625 
Q 45.0625 59.375 41.03125 60.859375 
Q 37.015625 62.359375 32.953125 62.359375 
Q 25.6875 62.359375 21.65625 59.453125 
Q 17.625 56.546875 17.625 51.21875 
L 17.625 51.171875 
Q 17.625 47.515625 19.703125 45.40625 
Q 21.78125 43.3125 24.875 42.3125 
Q 27.984375 41.3125 33.5 40.234375 
Q 33.6875 40.1875 33.859375 40.15625 
Q 34.03125 40.140625 34.234375 40.09375 
Q 34.46875 40.046875 34.765625 39.984375 
Q 35.0625 39.9375 35.296875 39.890625 
Q 41.75 38.578125 46.0625 36.765625 
Q 50.390625 34.96875 53.296875 30.9375 
Q 56.203125 26.90625 56.203125 19.921875 
L 56.203125 19.828125 
Q 56.203125 13.328125 53.125 8.71875 
Q 50.046875 4.109375 44.203125 1.6875 
Q 38.375 -0.734375 30.125 -0.734375 
z
" id="Bahnschrift-83"/>
       <path d="M 8.796875 71 
L 18.75 71 
L 18.75 0 
L 8.796875 0 
z
M 13.625 9.46875 
L 54.390625 9.46875 
L 54.390625 0 
L 13.625 0 
z
M 13.625 39.984375 
L 49.03125 39.984375 
L 49.03125 30.515625 
L 13.625 30.515625 
z
M 13.625 71 
L 54.390625 71 
L 54.390625 61.53125 
L 13.625 61.53125 
z
" id="Bahnschrift-69"/>
       <path d="M 26.125 -15.28125 
Q 17.4375 -5.859375 13.109375 5.828125 
Q 8.796875 17.53125 8.796875 31.640625 
Q 8.796875 45.75 13.109375 57.4375 
Q 17.4375 69.140625 26.125 78.5625 
L 32.953125 72.359375 
Q 25.59375 64.15625 21.921875 54 
Q 18.265625 43.84375 18.265625 31.640625 
Q 18.265625 19.4375 21.921875 9.28125 
Q 25.59375 -0.875 32.953125 -9.125 
L 26.125 -15.28125 
z
" id="Bahnschrift-40"/>
       <path d="M 1.46875 71 
L 12.3125 71 
L 29.34375 15.328125 
L 46.390625 71 
L 57.234375 71 
L 34.078125 0 
L 24.609375 0 
z
" id="Bahnschrift-86"/>
       <path d="M 0.984375 -9.125 
Q 8.34375 -0.875 12 9.28125 
Q 15.671875 19.4375 15.671875 31.640625 
Q 15.671875 43.84375 12 54 
Q 8.34375 64.15625 0.984375 72.359375 
L 7.8125 78.5625 
Q 16.5 69.140625 20.8125 57.4375 
Q 25.140625 45.75 25.140625 31.640625 
Q 25.140625 17.53125 20.8125 5.828125 
Q 16.5 -5.859375 7.8125 -15.28125 
z
" id="Bahnschrift-41"/>
      </defs>
      <use xlink:href="#Bahnschrift-65"/>
      <use x="64.746094" xlink:href="#Bahnschrift-118"/>
      <use x="114.746094" xlink:href="#Bahnschrift-101"/>
      <use x="168.359375" xlink:href="#Bahnschrift-114"/>
      <use x="211.035156" xlink:href="#Bahnschrift-97"/>
      <use x="264.257812" xlink:href="#Bahnschrift-103"/>
      <use x="318.164062" xlink:href="#Bahnschrift-101"/>
      <use x="371.777344" xlink:href="#Bahnschrift-32"/>
      <use x="398.632812" xlink:href="#Bahnschrift-82"/>
      <use x="463.818359" xlink:href="#Bahnschrift-77"/>
      <use x="541.748047" xlink:href="#Bahnschrift-83"/>
      <use x="603.320312" xlink:href="#Bahnschrift-69"/>
      <use x="663.085938" xlink:href="#Bahnschrift-32"/>
      <use x="689.941406" xlink:href="#Bahnschrift-40"/>
      <use x="723.876953" xlink:href="#Bahnschrift-101"/>
      <use x="777.490234" xlink:href="#Bahnschrift-86"/>
      <use x="836.181641" xlink:href="#Bahnschrift-41"/>
     </g>
    </g>
   </g>
   <g id="line2d_24">
    <path clip-path="url(#p666488fb93)" d="M 75.6 352.366705 
L 88.2 352.491186 
L 100.8 352.491186 
L 113.4 352.491186 
L 126 353.058881 
L 138.6 353.058881 
L 151.2 350.129621 
L 163.8 350.129621 
L 176.4 350.129621 
L 189 350.129621 
L 201.6 350.129621 
L 214.2 350.129621 
L 226.8 348.278842 
L 239.4 344.345326 
L 252 344.375855 
L 264.6 346.217485 
L 277.2 351.746865 
L 289.8 351.746865 
L 302.4 350.693418 
L 315 350.475298 
L 327.6 350.475298 
L 340.2 345.819038 
L 352.8 346.379646 
L 365.4 346.379646 
L 378 347.320857 
L 390.6 339.192024 
L 403.2 339.192024 
L 415.8 330.389968 
L 428.4 330.389968 
L 441 321.858559 
" style="fill:none;stroke:#db7093;stroke-linecap:square;stroke-width:1.5;"/>
    <defs>
     <path d="M 0 -3 
L -3 3 
L 3 3 
z
" id="m0e2347c5dc" style="stroke:#db7093;stroke-linejoin:miter;"/>
    </defs>
    <g clip-path="url(#p666488fb93)">
     <use style="fill:#db7093;stroke:#db7093;stroke-linejoin:miter;" x="75.6" xlink:href="#m0e2347c5dc" y="352.366705"/>
     <use style="fill:#db7093;stroke:#db7093;stroke-linejoin:miter;" x="88.2" xlink:href="#m0e2347c5dc" y="352.491186"/>
     <use style="fill:#db7093;stroke:#db7093;stroke-linejoin:miter;" x="100.8" xlink:href="#m0e2347c5dc" y="352.491186"/>
     <use style="fill:#db7093;stroke:#db7093;stroke-linejoin:miter;" x="113.4" xlink:href="#m0e2347c5dc" y="352.491186"/>
     <use style="fill:#db7093;stroke:#db7093;stroke-linejoin:miter;" x="126" xlink:href="#m0e2347c5dc" y="353.058881"/>
     <use style="fill:#db7093;stroke:#db7093;stroke-linejoin:miter;" x="138.6" xlink:href="#m0e2347c5dc" y="353.058881"/>
     <use style="fill:#db7093;stroke:#db7093;stroke-linejoin:miter;" x="151.2" xlink:href="#m0e2347c5dc" y="350.129621"/>
     <use style="fill:#db7093;stroke:#db7093;stroke-linejoin:miter;" x="163.8" xlink:href="#m0e2347c5dc" y="350.129621"/>
     <use style="fill:#db7093;stroke:#db7093;stroke-linejoin:miter;" x="176.4" xlink:href="#m0e2347c5dc" y="350.129621"/>
     <use style="fill:#db7093;stroke:#db7093;stroke-linejoin:miter;" x="189" xlink:href="#m0e2347c5dc" y="350.129621"/>
     <use style="fill:#db7093;stroke:#db7093;stroke-linejoin:miter;" x="201.6" xlink:href="#m0e2347c5dc" y="350.129621"/>
     <use style="fill:#db7093;stroke:#db7093;stroke-linejoin:miter;" x="214.2" xlink:href="#m0e2347c5dc" y="350.129621"/>
     <use style="fill:#db7093;stroke:#db7093;stroke-linejoin:miter;" x="226.8" xlink:href="#m0e2347c5dc" y="348.278842"/>
     <use style="fill:#db7093;stroke:#db7093;stroke-linejoin:miter;" x="239.4" xlink:href="#m0e2347c5dc" y="344.345326"/>
     <use style="fill:#db7093;stroke:#db7093;stroke-linejoin:miter;" x="252" xlink:href="#m0e2347c5dc" y="344.375855"/>
     <use style="fill:#db7093;stroke:#db7093;stroke-linejoin:miter;" x="264.6" xlink:href="#m0e2347c5dc" y="346.217485"/>
     <use style="fill:#db7093;stroke:#db7093;stroke-linejoin:miter;" x="277.2" xlink:href="#m0e2347c5dc" y="351.746865"/>
     <use style="fill:#db7093;stroke:#db7093;stroke-linejoin:miter;" x="289.8" xlink:href="#m0e2347c5dc" y="351.746865"/>
     <use style="fill:#db7093;stroke:#db7093;stroke-linejoin:miter;" x="302.4" xlink:href="#m0e2347c5dc" y="350.693418"/>
     <use style="fill:#db7093;stroke:#db7093;stroke-linejoin:miter;" x="315" xlink:href="#m0e2347c5dc" y="350.475298"/>
     <use style="fill:#db7093;stroke:#db7093;stroke-linejoin:miter;" x="327.6" xlink:href="#m0e2347c5dc" y="350.475298"/>
     <use style="fill:#db7093;stroke:#db7093;stroke-linejoin:miter;" x="340.2" xlink:href="#m0e2347c5dc" y="345.819038"/>
     <use style="fill:#db7093;stroke:#db7093;stroke-linejoin:miter;" x="352.8" xlink:href="#m0e2347c5dc" y="346.379646"/>
     <use style="fill:#db7093;stroke:#db7093;stroke-linejoin:miter;" x="365.4" xlink:href="#m0e2347c5dc" y="346.379646"/>
     <use style="fill:#db7093;stroke:#db7093;stroke-linejoin:miter;" x="378" xlink:href="#m0e2347c5dc" y="347.320857"/>
     <use style="fill:#db7093;stroke:#db7093;stroke-linejoin:miter;" x="390.6" xlink:href="#m0e2347c5dc" y="339.192024"/>
     <use style="fill:#db7093;stroke:#db7093;stroke-linejoin:miter;" x="403.2" xlink:href="#m0e2347c5dc" y="339.192024"/>
     <use style="fill:#db7093;stroke:#db7093;stroke-linejoin:miter;" x="415.8" xlink:href="#m0e2347c5dc" y="330.389968"/>
     <use style="fill:#db7093;stroke:#db7093;stroke-linejoin:miter;" x="428.4" xlink:href="#m0e2347c5dc" y="330.389968"/>
     <use style="fill:#db7093;stroke:#db7093;stroke-linejoin:miter;" x="441" xlink:href="#m0e2347c5dc" y="321.858559"/>
    </g>
   </g>
   <g id="line2d_25">
    <path clip-path="url(#p666488fb93)" d="M 75.6 330.248197 
L 88.2 329.159048 
L 100.8 329.982219 
L 113.4 326.975515 
L 126 329.90081 
L 138.6 328.830092 
L 151.2 332.441493 
L 163.8 329.10179 
L 176.4 330.227243 
L 189 330.910747 
L 201.6 328.920446 
L 214.2 329.929749 
L 226.8 329.556644 
L 239.4 330.151501 
L 252 330.331432 
L 264.6 326.591801 
L 277.2 327.520545 
L 289.8 328.556202 
L 302.4 327.460104 
L 315 331.064964 
L 327.6 330.297385 
L 340.2 330.580725 
L 352.8 332.577729 
L 365.4 330.738326 
L 378 330.973265 
L 390.6 330.030758 
L 403.2 330.491945 
L 415.8 327.879482 
L 428.4 327.731852 
L 441 328.370615 
" style="fill:none;stroke:#ff7f0e;stroke-linecap:square;stroke-width:1.5;"/>
    <defs>
     <path d="M -0 3 
L 3 -3 
L -3 -3 
z
" id="m24906c4478" style="stroke:#ff7f0e;stroke-linejoin:miter;"/>
    </defs>
    <g clip-path="url(#p666488fb93)">
     <use style="fill:#ff7f0e;stroke:#ff7f0e;stroke-linejoin:miter;" x="75.6" xlink:href="#m24906c4478" y="330.248197"/>
     <use style="fill:#ff7f0e;stroke:#ff7f0e;stroke-linejoin:miter;" x="88.2" xlink:href="#m24906c4478" y="329.159048"/>
     <use style="fill:#ff7f0e;stroke:#ff7f0e;stroke-linejoin:miter;" x="100.8" xlink:href="#m24906c4478" y="329.982219"/>
     <use style="fill:#ff7f0e;stroke:#ff7f0e;stroke-linejoin:miter;" x="113.4" xlink:href="#m24906c4478" y="326.975515"/>
     <use style="fill:#ff7f0e;stroke:#ff7f0e;stroke-linejoin:miter;" x="126" xlink:href="#m24906c4478" y="329.90081"/>
     <use style="fill:#ff7f0e;stroke:#ff7f0e;stroke-linejoin:miter;" x="138.6" xlink:href="#m24906c4478" y="328.830092"/>
     <use style="fill:#ff7f0e;stroke:#ff7f0e;stroke-linejoin:miter;" x="151.2" xlink:href="#m24906c4478" y="332.441493"/>
     <use style="fill:#ff7f0e;stroke:#ff7f0e;stroke-linejoin:miter;" x="163.8" xlink:href="#m24906c4478" y="329.10179"/>
     <use style="fill:#ff7f0e;stroke:#ff7f0e;stroke-linejoin:miter;" x="176.4" xlink:href="#m24906c4478" y="330.227243"/>
     <use style="fill:#ff7f0e;stroke:#ff7f0e;stroke-linejoin:miter;" x="189" xlink:href="#m24906c4478" y="330.910747"/>
     <use style="fill:#ff7f0e;stroke:#ff7f0e;stroke-linejoin:miter;" x="201.6" xlink:href="#m24906c4478" y="328.920446"/>
     <use style="fill:#ff7f0e;stroke:#ff7f0e;stroke-linejoin:miter;" x="214.2" xlink:href="#m24906c4478" y="329.929749"/>
     <use style="fill:#ff7f0e;stroke:#ff7f0e;stroke-linejoin:miter;" x="226.8" xlink:href="#m24906c4478" y="329.556644"/>
     <use style="fill:#ff7f0e;stroke:#ff7f0e;stroke-linejoin:miter;" x="239.4" xlink:href="#m24906c4478" y="330.151501"/>
     <use style="fill:#ff7f0e;stroke:#ff7f0e;stroke-linejoin:miter;" x="252" xlink:href="#m24906c4478" y="330.331432"/>
     <use style="fill:#ff7f0e;stroke:#ff7f0e;stroke-linejoin:miter;" x="264.6" xlink:href="#m24906c4478" y="326.591801"/>
     <use style="fill:#ff7f0e;stroke:#ff7f0e;stroke-linejoin:miter;" x="277.2" xlink:href="#m24906c4478" y="327.520545"/>
     <use style="fill:#ff7f0e;stroke:#ff7f0e;stroke-linejoin:miter;" x="289.8" xlink:href="#m24906c4478" y="328.556202"/>
     <use style="fill:#ff7f0e;stroke:#ff7f0e;stroke-linejoin:miter;" x="302.4" xlink:href="#m24906c4478" y="327.460104"/>
     <use style="fill:#ff7f0e;stroke:#ff7f0e;stroke-linejoin:miter;" x="315" xlink:href="#m24906c4478" y="331.064964"/>
     <use style="fill:#ff7f0e;stroke:#ff7f0e;stroke-linejoin:miter;" x="327.6" xlink:href="#m24906c4478" y="330.297385"/>
     <use style="fill:#ff7f0e;stroke:#ff7f0e;stroke-linejoin:miter;" x="340.2" xlink:href="#m24906c4478" y="330.580725"/>
     <use style="fill:#ff7f0e;stroke:#ff7f0e;stroke-linejoin:miter;" x="352.8" xlink:href="#m24906c4478" y="332.577729"/>
     <use style="fill:#ff7f0e;stroke:#ff7f0e;stroke-linejoin:miter;" x="365.4" xlink:href="#m24906c4478" y="330.738326"/>
     <use style="fill:#ff7f0e;stroke:#ff7f0e;stroke-linejoin:miter;" x="378" xlink:href="#m24906c4478" y="330.973265"/>
     <use style="fill:#ff7f0e;stroke:#ff7f0e;stroke-linejoin:miter;" x="390.6" xlink:href="#m24906c4478" y="330.030758"/>
     <use style="fill:#ff7f0e;stroke:#ff7f0e;stroke-linejoin:miter;" x="403.2" xlink:href="#m24906c4478" y="330.491945"/>
     <use style="fill:#ff7f0e;stroke:#ff7f0e;stroke-linejoin:miter;" x="415.8" xlink:href="#m24906c4478" y="327.879482"/>
     <use style="fill:#ff7f0e;stroke:#ff7f0e;stroke-linejoin:miter;" x="428.4" xlink:href="#m24906c4478" y="327.731852"/>
     <use style="fill:#ff7f0e;stroke:#ff7f0e;stroke-linejoin:miter;" x="441" xlink:href="#m24906c4478" y="328.370615"/>
    </g>
   </g>
   <g id="patch_3">
    <path d="M 63 384.48 
L 63 51.84 
" style="fill:none;stroke:#000000;stroke-linecap:square;stroke-linejoin:miter;stroke-width:0.8;"/>
   </g>
   <g id="patch_4">
    <path d="M 453.6 384.48 
L 453.6 51.84 
" style="fill:none;stroke:#000000;stroke-linecap:square;stroke-linejoin:miter;stroke-width:0.8;"/>
   </g>
   <g id="patch_5">
    <path d="M 63 384.48 
L 453.6 384.48 
" style="fill:none;stroke:#000000;stroke-linecap:square;stroke-linejoin:miter;stroke-width:0.8;"/>
   </g>
   <g id="patch_6">
    <path d="M 63 51.84 
L 453.6 51.84 
" style="fill:none;stroke:#000000;stroke-linecap:square;stroke-linejoin:miter;stroke-width:0.8;"/>
   </g>
   <g id="PathCollection_1">
    <defs>
     <path d="M 0 -3 
L -3 3 
L 3 3 
z
" id="m407f745b82" style="stroke:#ff0000;"/>
    </defs>
    <g clip-path="url(#p666488fb93)">
     <use style="fill:#ff0000;stroke:#ff0000;" x="126" xlink:href="#m407f745b82" y="353.058881"/>
    </g>
   </g>
   <g id="PathCollection_2">
    <defs>
     <path d="M -0 3 
L 3 -3 
L -3 -3 
z
" id="m01ab6c7506" style="stroke:#ff0000;"/>
    </defs>
    <g clip-path="url(#p666488fb93)">
     <use style="fill:#ff0000;stroke:#ff0000;" x="352.8" xlink:href="#m01ab6c7506" y="332.577729"/>
    </g>
   </g>
   <g id="text_22">
    <!-- 0.0459 -->
    <g transform="translate(116.55 347.273838)scale(0.1 -0.1)">
     <defs>
      <path d="M 32.46875 35.25 
L 32.421875 33.5 
Q 31.203125 31.25 28.734375 30.203125 
Q 26.265625 29.15625 22.90625 29.15625 
Q 17.828125 29.15625 13.96875 31.734375 
Q 10.109375 34.328125 7.984375 39.03125 
Q 5.859375 43.75 5.859375 49.953125 
L 5.859375 50 
Q 5.859375 56.890625 8.171875 61.765625 
Q 10.5 66.65625 14.96875 69.1875 
Q 19.4375 71.734375 25.6875 71.734375 
Q 31.9375 71.734375 36.375 69.140625 
Q 40.828125 66.546875 43.140625 61.609375 
Q 45.453125 56.6875 45.453125 49.75 
L 45.453125 49.703125 
Q 45.453125 45.90625 44.46875 41.578125 
Q 43.5 37.25 41.703125 33.015625 
Q 41.40625 32.375 41.109375 31.71875 
Q 40.828125 31.0625 40.484375 30.421875 
L 25.34375 0 
L 14.59375 0 
z
M 25.6875 38.234375 
Q 30.375 38.234375 32.9375 41.40625 
Q 35.5 44.578125 35.5 50.34375 
L 35.5 50.390625 
Q 35.5 56 32.9375 59.078125 
Q 30.375 62.15625 25.6875 62.15625 
Q 20.953125 62.15625 18.390625 59.078125 
Q 15.828125 56 15.828125 50.34375 
L 15.828125 50.296875 
Q 15.828125 44.53125 18.390625 41.375 
Q 20.953125 38.234375 25.6875 38.234375 
z
" id="Bahnschrift-57"/>
     </defs>
     <use xlink:href="#Bahnschrift-48"/>
     <use x="55.175781" xlink:href="#Bahnschrift-46"/>
     <use x="77.832031" xlink:href="#Bahnschrift-48"/>
     <use x="133.007812" xlink:href="#Bahnschrift-52"/>
     <use x="189.892578" xlink:href="#Bahnschrift-53"/>
     <use x="244.335938" xlink:href="#Bahnschrift-57"/>
    </g>
   </g>
   <g id="text_23">
    <!-- 0.0529 -->
    <g transform="translate(343.35 326.792686)scale(0.1 -0.1)">
     <use xlink:href="#Bahnschrift-48"/>
     <use x="55.175781" xlink:href="#Bahnschrift-46"/>
     <use x="77.832031" xlink:href="#Bahnschrift-48"/>
     <use x="133.007812" xlink:href="#Bahnschrift-53"/>
     <use x="187.451172" xlink:href="#Bahnschrift-50"/>
     <use x="239.111328" xlink:href="#Bahnschrift-57"/>
    </g>
   </g>
   <g id="legend_1">
    <g id="patch_7">
     <path d="M 70 88.161875 
L 132.978125 88.161875 
Q 134.978125 88.161875 134.978125 86.161875 
L 134.978125 58.84 
Q 134.978125 56.84 132.978125 56.84 
L 70 56.84 
Q 68 56.84 68 58.84 
L 68 86.161875 
Q 68 88.161875 70 88.161875 
z
" style="fill:#ffffff;opacity:0.8;stroke:#cccccc;stroke-linejoin:miter;"/>
    </g>
    <g id="line2d_26">
     <path d="M 72 64.44 
L 92 64.44 
" style="fill:none;stroke:#db7093;stroke-linecap:square;stroke-width:1.5;"/>
    </g>
    <g id="line2d_27">
     <g>
      <use style="fill:#db7093;stroke:#db7093;stroke-linejoin:miter;" x="82" xlink:href="#m0e2347c5dc" y="64.44"/>
     </g>
    </g>
    <g id="text_24">
     <!-- LASSO -->
     <g transform="translate(100 67.94)scale(0.1 -0.1)">
      <defs>
       <path d="M 8.796875 71 
L 18.75 71 
L 18.75 0 
L 8.796875 0 
z
M 13.765625 9.46875 
L 54.390625 9.46875 
L 54.390625 0 
L 13.765625 0 
z
" id="Bahnschrift-76"/>
       <path d="M 32.28125 -0.734375 
Q 24.859375 -0.734375 19.1875 2.515625 
Q 13.53125 5.765625 10.421875 11.6875 
Q 7.328125 17.625 7.328125 25.4375 
L 7.328125 45.5625 
Q 7.328125 53.375 10.421875 59.296875 
Q 13.53125 65.234375 19.1875 68.484375 
Q 24.859375 71.734375 32.28125 71.734375 
Q 39.703125 71.734375 45.359375 68.484375 
Q 51.03125 65.234375 54.125 59.296875 
Q 57.234375 53.375 57.234375 45.5625 
L 57.234375 25.4375 
Q 57.234375 17.625 54.125 11.6875 
Q 51.03125 5.765625 45.359375 2.515625 
Q 39.703125 -0.734375 32.28125 -0.734375 
z
M 32.28125 9.078125 
Q 36.671875 9.078125 40.015625 11.046875 
Q 43.359375 13.03125 45.1875 16.671875 
Q 47.015625 20.3125 47.015625 25.09375 
L 47.015625 45.90625 
Q 47.015625 50.6875 45.1875 54.3125 
Q 43.359375 57.953125 40.015625 59.9375 
Q 36.671875 61.921875 32.28125 61.921875 
Q 27.875 61.921875 24.53125 59.9375 
Q 21.1875 57.953125 19.359375 54.3125 
Q 17.53125 50.6875 17.53125 45.90625 
L 17.53125 25.09375 
Q 17.53125 20.3125 19.359375 16.671875 
Q 21.1875 13.03125 24.53125 11.046875 
Q 27.875 9.078125 32.28125 9.078125 
z
" id="Bahnschrift-79"/>
      </defs>
      <use xlink:href="#Bahnschrift-76"/>
      <use x="57.324219" xlink:href="#Bahnschrift-65"/>
      <use x="122.070312" xlink:href="#Bahnschrift-83"/>
      <use x="183.642578" xlink:href="#Bahnschrift-83"/>
      <use x="245.214844" xlink:href="#Bahnschrift-79"/>
     </g>
    </g>
    <g id="line2d_28">
     <path d="M 72 78.600937 
L 92 78.600937 
" style="fill:none;stroke:#ff7f0e;stroke-linecap:square;stroke-width:1.5;"/>
    </g>
    <g id="line2d_29">
     <g>
      <use style="fill:#ff7f0e;stroke:#ff7f0e;stroke-linejoin:miter;" x="82" xlink:href="#m24906c4478" y="78.600937"/>
     </g>
    </g>
    <g id="text_25">
     <!-- RF -->
     <g transform="translate(100 82.100937)scale(0.1 -0.1)">
      <defs>
       <path d="M 8.796875 71 
L 18.75 71 
L 18.75 0 
L 8.796875 0 
z
M 13.671875 39.359375 
L 48.09375 39.359375 
L 48.09375 29.890625 
L 13.671875 29.890625 
z
M 13.671875 71 
L 53.46875 71 
L 53.46875 61.53125 
L 13.671875 61.53125 
z
" id="Bahnschrift-70"/>
      </defs>
      <use xlink:href="#Bahnschrift-82"/>
      <use x="65.185547" xlink:href="#Bahnschrift-70"/>
     </g>
    </g>
   </g>
  </g>
  <g id="axes_2">
   <g id="matplotlib.axis_3">
    <g id="ytick_7">
     <g id="line2d_30">
      <defs>
       <path d="M 0 0 
L 3.5 0 
" id="mbd1369ae1b" style="stroke:#0000cd;stroke-width:0.8;"/>
      </defs>
      <g>
       <use style="fill:#0000cd;stroke:#0000cd;stroke-width:0.8;" x="453.6" xlink:href="#mbd1369ae1b" y="384.48"/>
      </g>
     </g>
     <g id="text_26">
      <!-- -30 -->
      <g style="fill:#0000cd;" transform="translate(460.6 388.03)scale(0.1 -0.1)">
       <defs>
        <path d="M 40.625 30.171875 
L 40.625 20.703125 
L 7.8125 20.703125 
L 7.8125 30.171875 
z
" id="Bahnschrift-45"/>
       </defs>
       <use xlink:href="#Bahnschrift-45"/>
       <use x="47.949219" xlink:href="#Bahnschrift-51"/>
       <use x="100.830078" xlink:href="#Bahnschrift-48"/>
      </g>
     </g>
    </g>
    <g id="ytick_8">
     <g id="line2d_31">
      <g>
       <use style="fill:#0000cd;stroke:#0000cd;stroke-width:0.8;" x="453.6" xlink:href="#mbd1369ae1b" y="334.08"/>
      </g>
     </g>
     <g id="text_27">
      <!-- -20 -->
      <g style="fill:#0000cd;" transform="translate(460.6 337.63)scale(0.1 -0.1)">
       <use xlink:href="#Bahnschrift-45"/>
       <use x="47.949219" xlink:href="#Bahnschrift-50"/>
       <use x="99.609375" xlink:href="#Bahnschrift-48"/>
      </g>
     </g>
    </g>
    <g id="ytick_9">
     <g id="line2d_32">
      <g>
       <use style="fill:#0000cd;stroke:#0000cd;stroke-width:0.8;" x="453.6" xlink:href="#mbd1369ae1b" y="283.68"/>
      </g>
     </g>
     <g id="text_28">
      <!-- -10 -->
      <g style="fill:#0000cd;" transform="translate(460.6 287.23)scale(0.1 -0.1)">
       <use xlink:href="#Bahnschrift-45"/>
       <use x="47.949219" xlink:href="#Bahnschrift-49"/>
       <use x="81.201172" xlink:href="#Bahnschrift-48"/>
      </g>
     </g>
    </g>
    <g id="ytick_10">
     <g id="line2d_33">
      <g>
       <use style="fill:#0000cd;stroke:#0000cd;stroke-width:0.8;" x="453.6" xlink:href="#mbd1369ae1b" y="233.28"/>
      </g>
     </g>
     <g id="text_29">
      <!-- 0 -->
      <g style="fill:#0000cd;" transform="translate(460.6 236.83)scale(0.1 -0.1)">
       <use xlink:href="#Bahnschrift-48"/>
      </g>
     </g>
    </g>
    <g id="ytick_11">
     <g id="line2d_34">
      <g>
       <use style="fill:#0000cd;stroke:#0000cd;stroke-width:0.8;" x="453.6" xlink:href="#mbd1369ae1b" y="182.88"/>
      </g>
     </g>
     <g id="text_30">
      <!-- 10 -->
      <g style="fill:#0000cd;" transform="translate(460.6 186.43)scale(0.1 -0.1)">
       <use xlink:href="#Bahnschrift-49"/>
       <use x="33.251953" xlink:href="#Bahnschrift-48"/>
      </g>
     </g>
    </g>
    <g id="ytick_12">
     <g id="line2d_35">
      <g>
       <use style="fill:#0000cd;stroke:#0000cd;stroke-width:0.8;" x="453.6" xlink:href="#mbd1369ae1b" y="132.48"/>
      </g>
     </g>
     <g id="text_31">
      <!-- 20 -->
      <g style="fill:#0000cd;" transform="translate(460.6 136.03)scale(0.1 -0.1)">
       <use xlink:href="#Bahnschrift-50"/>
       <use x="51.660156" xlink:href="#Bahnschrift-48"/>
      </g>
     </g>
    </g>
    <g id="ytick_13">
     <g id="line2d_36">
      <g>
       <use style="fill:#0000cd;stroke:#0000cd;stroke-width:0.8;" x="453.6" xlink:href="#mbd1369ae1b" y="82.08"/>
      </g>
     </g>
     <g id="text_32">
      <!-- 30 -->
      <g style="fill:#0000cd;" transform="translate(460.6 85.63)scale(0.1 -0.1)">
       <use xlink:href="#Bahnschrift-51"/>
       <use x="52.880859" xlink:href="#Bahnschrift-48"/>
      </g>
     </g>
    </g>
    <g id="text_33">
     <!-- Number of Removed Descriptors -->
     <g style="fill:#0000cd;" transform="translate(487.304688 291.65375)rotate(-90)scale(0.1 -0.1)">
      <defs>
       <path d="M 8.796875 71 
L 17.828125 71 
L 52.546875 16.109375 
L 51.375 14.84375 
L 51.375 71 
L 61.234375 71 
L 61.234375 0.046875 
L 52.09375 0.046875 
L 17.484375 54.109375 
L 18.65625 55.375 
L 18.65625 0.046875 
L 8.796875 0.046875 
z
" id="Bahnschrift-78"/>
       <path d="M 38.375 50.6875 
L 48.296875 50.6875 
L 48.296875 0 
L 38.375 0 
z
M 17.78125 19.875 
Q 17.78125 14.546875 20.484375 11.640625 
Q 23.1875 8.734375 28.125 8.734375 
Q 33.015625 8.734375 35.6875 11.328125 
Q 38.375 13.921875 38.375 18.703125 
L 39.0625 8.109375 
Q 37.5 4.34375 33.984375 1.796875 
Q 30.46875 -0.734375 25.34375 -0.734375 
Q 16.9375 -0.734375 12.375 4.65625 
Q 7.8125 10.0625 7.8125 19.875 
L 7.8125 50.6875 
L 17.78125 50.6875 
z
" id="Bahnschrift-117"/>
       <path d="M 68.359375 30.71875 
Q 68.359375 36.078125 65.578125 39 
Q 62.796875 41.9375 57.765625 41.9375 
Q 53.125 41.9375 50.578125 39.109375 
Q 48.046875 36.28125 48.046875 31.109375 
L 46.046875 40.875 
Q 48.4375 45.90625 52.359375 48.65625 
Q 56.296875 51.421875 61.03125 51.421875 
Q 66.5 51.421875 70.375 49 
Q 74.265625 46.578125 76.296875 41.9375 
Q 78.328125 37.3125 78.328125 30.765625 
L 78.328125 0 
L 68.359375 0 
z
M 7.8125 50.6875 
L 17.78125 50.6875 
L 17.78125 0 
L 7.8125 0 
z
M 38.09375 30.71875 
Q 38.09375 36.078125 35.453125 39 
Q 32.8125 41.9375 27.984375 41.9375 
Q 23.09375 41.9375 20.4375 39.34375 
Q 17.78125 36.765625 17.78125 32.078125 
L 16.75 41.84375 
Q 19.09375 46.4375 22.875 48.921875 
Q 26.65625 51.421875 31.25 51.421875 
Q 36.578125 51.421875 40.328125 49 
Q 44.09375 46.578125 46.0625 41.9375 
Q 48.046875 37.3125 48.046875 30.765625 
L 48.046875 0 
L 38.09375 0 
z
" id="Bahnschrift-109"/>
       <path d="M 30.515625 -0.734375 
Q 25.78125 -0.734375 22.265625 1.53125 
Q 18.75 3.8125 17.09375 7.953125 
L 17.78125 18.5625 
Q 17.78125 15.28125 18.953125 12.984375 
Q 20.125 10.6875 22.34375 9.46875 
Q 24.5625 8.25 27.734375 8.25 
Q 32.671875 8.25 35.375 11.25 
Q 38.09375 14.265625 38.09375 19.734375 
L 38.09375 30.71875 
Q 38.09375 36.28125 35.375 39.359375 
Q 32.671875 42.4375 27.734375 42.4375 
Q 24.5625 42.4375 22.34375 41.265625 
Q 20.125 40.09375 18.953125 37.8125 
Q 17.78125 35.546875 17.78125 32.375 
L 16.75 42.140625 
Q 19.046875 46.578125 22.75 49 
Q 26.46875 51.421875 31 51.421875 
Q 36.375 51.421875 40.203125 49 
Q 44.046875 46.578125 46.046875 41.9375 
Q 48.046875 37.3125 48.046875 30.765625 
L 48.046875 19.734375 
Q 48.046875 13.28125 46 8.6875 
Q 43.953125 4.109375 39.984375 1.6875 
Q 36.03125 -0.734375 30.515625 -0.734375 
z
M 7.8125 71 
L 17.78125 71 
L 17.78125 0 
L 7.8125 0 
z
" id="Bahnschrift-98"/>
       <path d="M 9.28125 57.5625 
Q 9.28125 64.3125 12.375 67.65625 
Q 15.484375 71 21.921875 71 
L 29.25 71 
L 29.25 61.53125 
L 22.125 61.53125 
Q 20.703125 61.53125 19.96875 60.453125 
Q 19.234375 59.375 19.234375 57.671875 
L 19.234375 0 
L 9.28125 0 
z
M 3.90625 50.6875 
L 29.25 50.6875 
L 29.25 42.1875 
L 3.90625 42.1875 
z
" id="Bahnschrift-102"/>
       <path d="M 15.53125 9.46875 
L 31.59375 9.46875 
Q 39.453125 9.46875 43.765625 13.546875 
Q 48.09375 17.625 48.09375 25.046875 
L 48.09375 45.953125 
Q 48.09375 53.375 43.765625 57.453125 
Q 39.453125 61.53125 31.59375 61.53125 
L 15.53125 61.53125 
L 15.53125 71 
L 31.296875 71 
Q 39.84375 71 45.890625 68.015625 
Q 51.953125 65.046875 55.125 59.328125 
Q 58.296875 53.609375 58.296875 45.5625 
L 58.296875 25.4375 
Q 58.296875 17.390625 55.125 11.671875 
Q 51.953125 5.953125 45.875 2.96875 
Q 39.796875 0 31.25 0 
L 15.53125 0 
z
M 8.796875 71 
L 18.75 71 
L 18.75 0 
L 8.796875 0 
z
" id="Bahnschrift-68"/>
       <path d="M 28.265625 -0.734375 
Q 21.34375 -0.734375 16.4375 1.84375 
Q 11.53125 4.4375 8.9375 9.375 
Q 6.34375 14.3125 6.34375 21.296875 
L 6.34375 29.640625 
Q 6.34375 36.53125 8.9375 41.40625 
Q 11.53125 46.296875 16.4375 48.859375 
Q 21.34375 51.421875 28.265625 51.421875 
Q 32.234375 51.421875 35.71875 50.46875 
Q 39.203125 49.515625 41.984375 47.703125 
Q 44.78125 45.90625 46.625 43.3125 
L 46.625 43.3125 
L 39.453125 36.859375 
L 39.453125 36.859375 
Q 37.3125 39.3125 34.421875 40.625 
Q 31.546875 41.9375 28.421875 41.9375 
Q 22.65625 41.9375 19.484375 38.71875 
Q 16.3125 35.5 16.3125 29.640625 
L 16.3125 21.296875 
Q 16.3125 15.28125 19.453125 12 
Q 22.609375 8.734375 28.421875 8.734375 
Q 31.59375 8.734375 34.46875 10.15625 
Q 37.359375 11.578125 39.453125 14.15625 
L 39.453125 14.15625 
L 46.625 7.234375 
L 46.625 7.234375 
Q 44.734375 4.6875 41.9375 2.90625 
Q 39.15625 1.125 35.65625 0.1875 
Q 32.171875 -0.734375 28.265625 -0.734375 
z
" id="Bahnschrift-99"/>
       <path d="M 7.8125 71 
L 17.78125 71 
L 17.78125 61.03125 
L 7.8125 61.03125 
z
M 7.8125 50.6875 
L 17.78125 50.6875 
L 17.78125 0 
L 7.8125 0 
z
" id="Bahnschrift-105"/>
       <path d="M 7.8125 50.6875 
L 17.78125 50.6875 
L 17.78125 -20.609375 
L 7.8125 -20.609375 
z
M 30.515625 -0.734375 
Q 25.78125 -0.734375 22.265625 1.53125 
Q 18.75 3.8125 17.09375 7.953125 
L 17.78125 18.5625 
Q 17.78125 15.28125 18.953125 12.984375 
Q 20.125 10.6875 22.34375 9.46875 
Q 24.5625 8.25 27.734375 8.25 
Q 32.671875 8.25 35.375 11.25 
Q 38.09375 14.265625 38.09375 19.734375 
L 38.09375 30.71875 
Q 38.09375 36.28125 35.375 39.359375 
Q 32.671875 42.4375 27.734375 42.4375 
Q 24.5625 42.4375 22.34375 41.265625 
Q 20.125 40.09375 18.953125 37.8125 
Q 17.78125 35.546875 17.78125 32.375 
L 16.75 42.140625 
Q 19.046875 46.578125 22.75 49 
Q 26.46875 51.421875 31 51.421875 
Q 36.375 51.421875 40.203125 49 
Q 44.046875 46.578125 46.046875 41.9375 
Q 48.046875 37.3125 48.046875 30.765625 
L 48.046875 19.734375 
Q 48.046875 13.28125 46 8.6875 
Q 43.953125 4.109375 39.984375 1.6875 
Q 36.03125 -0.734375 30.515625 -0.734375 
z
" id="Bahnschrift-112"/>
       <path d="M 21 -0.25 
Q 14.84375 -0.25 11.984375 3.140625 
Q 9.125 6.546875 9.125 13.1875 
L 9.125 65.4375 
L 19.09375 65.4375 
L 19.09375 13.09375 
Q 19.09375 11.234375 19.828125 10.234375 
Q 20.5625 9.234375 21.96875 9.234375 
L 26.765625 9.234375 
L 26.765625 -0.25 
L 21 -0.25 
z
M 3.90625 50.6875 
L 26.765625 50.6875 
L 26.765625 41.703125 
L 3.90625 41.703125 
z
" id="Bahnschrift-116"/>
      </defs>
      <use xlink:href="#Bahnschrift-78"/>
      <use x="70.019531" xlink:href="#Bahnschrift-117"/>
      <use x="125.634766" xlink:href="#Bahnschrift-109"/>
      <use x="211.279297" xlink:href="#Bahnschrift-98"/>
      <use x="265.673828" xlink:href="#Bahnschrift-101"/>
      <use x="319.287109" xlink:href="#Bahnschrift-114"/>
      <use x="361.962891" xlink:href="#Bahnschrift-32"/>
      <use x="388.818359" xlink:href="#Bahnschrift-111"/>
      <use x="443.310547" xlink:href="#Bahnschrift-102"/>
      <use x="475" xlink:href="#Bahnschrift-32"/>
      <use x="501.855469" xlink:href="#Bahnschrift-82"/>
      <use x="567.041016" xlink:href="#Bahnschrift-101"/>
      <use x="620.654297" xlink:href="#Bahnschrift-109"/>
      <use x="706.298828" xlink:href="#Bahnschrift-111"/>
      <use x="760.791016" xlink:href="#Bahnschrift-118"/>
      <use x="810.791016" xlink:href="#Bahnschrift-101"/>
      <use x="864.404297" xlink:href="#Bahnschrift-100"/>
      <use x="918.310547" xlink:href="#Bahnschrift-32"/>
      <use x="945.166016" xlink:href="#Bahnschrift-68"/>
      <use x="1010.791016" xlink:href="#Bahnschrift-101"/>
      <use x="1064.404297" xlink:href="#Bahnschrift-115"/>
      <use x="1116.259766" xlink:href="#Bahnschrift-99"/>
      <use x="1166.064453" xlink:href="#Bahnschrift-114"/>
      <use x="1208.740234" xlink:href="#Bahnschrift-105"/>
      <use x="1233.837891" xlink:href="#Bahnschrift-112"/>
      <use x="1288.232422" xlink:href="#Bahnschrift-116"/>
      <use x="1320.849609" xlink:href="#Bahnschrift-111"/>
      <use x="1375.341797" xlink:href="#Bahnschrift-114"/>
      <use x="1418.017578" xlink:href="#Bahnschrift-115"/>
     </g>
    </g>
   </g>
   <g id="line2d_37">
    <path clip-path="url(#p666488fb93)" d="M 75.6 238.32 
L 88.2 233.28 
L 100.8 233.28 
L 113.4 233.28 
L 126 228.24 
L 138.6 228.24 
L 151.2 218.16 
L 163.8 218.16 
L 176.4 218.16 
L 189 218.16 
L 201.6 218.16 
L 214.2 218.16 
L 226.8 208.08 
L 239.4 203.04 
L 252 198 
L 264.6 177.84 
L 277.2 152.64 
L 289.8 152.64 
L 302.4 142.56 
L 315 137.52 
L 327.6 137.52 
L 340.2 127.44 
L 352.8 112.32 
L 365.4 112.32 
L 378 102.24 
L 390.6 92.16 
L 403.2 92.16 
L 415.8 87.12 
L 428.4 87.12 
L 441 82.08 
" style="fill:none;stroke:#0000cd;stroke-linecap:square;stroke-opacity:0.6;stroke-width:1.5;"/>
    <defs>
     <path d="M 0 4.242641 
L 4.242641 0 
L 0 -4.242641 
L -4.242641 0 
z
" id="md210549e4b" style="stroke:#0000cd;stroke-linejoin:miter;stroke-opacity:0.6;"/>
    </defs>
    <g clip-path="url(#p666488fb93)">
     <use style="fill:#0000cd;fill-opacity:0.6;stroke:#0000cd;stroke-linejoin:miter;stroke-opacity:0.6;" x="75.6" xlink:href="#md210549e4b" y="238.32"/>
     <use style="fill:#0000cd;fill-opacity:0.6;stroke:#0000cd;stroke-linejoin:miter;stroke-opacity:0.6;" x="88.2" xlink:href="#md210549e4b" y="233.28"/>
     <use style="fill:#0000cd;fill-opacity:0.6;stroke:#0000cd;stroke-linejoin:miter;stroke-opacity:0.6;" x="100.8" xlink:href="#md210549e4b" y="233.28"/>
     <use style="fill:#0000cd;fill-opacity:0.6;stroke:#0000cd;stroke-linejoin:miter;stroke-opacity:0.6;" x="113.4" xlink:href="#md210549e4b" y="233.28"/>
     <use style="fill:#0000cd;fill-opacity:0.6;stroke:#0000cd;stroke-linejoin:miter;stroke-opacity:0.6;" x="126" xlink:href="#md210549e4b" y="228.24"/>
     <use style="fill:#0000cd;fill-opacity:0.6;stroke:#0000cd;stroke-linejoin:miter;stroke-opacity:0.6;" x="138.6" xlink:href="#md210549e4b" y="228.24"/>
     <use style="fill:#0000cd;fill-opacity:0.6;stroke:#0000cd;stroke-linejoin:miter;stroke-opacity:0.6;" x="151.2" xlink:href="#md210549e4b" y="218.16"/>
     <use style="fill:#0000cd;fill-opacity:0.6;stroke:#0000cd;stroke-linejoin:miter;stroke-opacity:0.6;" x="163.8" xlink:href="#md210549e4b" y="218.16"/>
     <use style="fill:#0000cd;fill-opacity:0.6;stroke:#0000cd;stroke-linejoin:miter;stroke-opacity:0.6;" x="176.4" xlink:href="#md210549e4b" y="218.16"/>
     <use style="fill:#0000cd;fill-opacity:0.6;stroke:#0000cd;stroke-linejoin:miter;stroke-opacity:0.6;" x="189" xlink:href="#md210549e4b" y="218.16"/>
     <use style="fill:#0000cd;fill-opacity:0.6;stroke:#0000cd;stroke-linejoin:miter;stroke-opacity:0.6;" x="201.6" xlink:href="#md210549e4b" y="218.16"/>
     <use style="fill:#0000cd;fill-opacity:0.6;stroke:#0000cd;stroke-linejoin:miter;stroke-opacity:0.6;" x="214.2" xlink:href="#md210549e4b" y="218.16"/>
     <use style="fill:#0000cd;fill-opacity:0.6;stroke:#0000cd;stroke-linejoin:miter;stroke-opacity:0.6;" x="226.8" xlink:href="#md210549e4b" y="208.08"/>
     <use style="fill:#0000cd;fill-opacity:0.6;stroke:#0000cd;stroke-linejoin:miter;stroke-opacity:0.6;" x="239.4" xlink:href="#md210549e4b" y="203.04"/>
     <use style="fill:#0000cd;fill-opacity:0.6;stroke:#0000cd;stroke-linejoin:miter;stroke-opacity:0.6;" x="252" xlink:href="#md210549e4b" y="198"/>
     <use style="fill:#0000cd;fill-opacity:0.6;stroke:#0000cd;stroke-linejoin:miter;stroke-opacity:0.6;" x="264.6" xlink:href="#md210549e4b" y="177.84"/>
     <use style="fill:#0000cd;fill-opacity:0.6;stroke:#0000cd;stroke-linejoin:miter;stroke-opacity:0.6;" x="277.2" xlink:href="#md210549e4b" y="152.64"/>
     <use style="fill:#0000cd;fill-opacity:0.6;stroke:#0000cd;stroke-linejoin:miter;stroke-opacity:0.6;" x="289.8" xlink:href="#md210549e4b" y="152.64"/>
     <use style="fill:#0000cd;fill-opacity:0.6;stroke:#0000cd;stroke-linejoin:miter;stroke-opacity:0.6;" x="302.4" xlink:href="#md210549e4b" y="142.56"/>
     <use style="fill:#0000cd;fill-opacity:0.6;stroke:#0000cd;stroke-linejoin:miter;stroke-opacity:0.6;" x="315" xlink:href="#md210549e4b" y="137.52"/>
     <use style="fill:#0000cd;fill-opacity:0.6;stroke:#0000cd;stroke-linejoin:miter;stroke-opacity:0.6;" x="327.6" xlink:href="#md210549e4b" y="137.52"/>
     <use style="fill:#0000cd;fill-opacity:0.6;stroke:#0000cd;stroke-linejoin:miter;stroke-opacity:0.6;" x="340.2" xlink:href="#md210549e4b" y="127.44"/>
     <use style="fill:#0000cd;fill-opacity:0.6;stroke:#0000cd;stroke-linejoin:miter;stroke-opacity:0.6;" x="352.8" xlink:href="#md210549e4b" y="112.32"/>
     <use style="fill:#0000cd;fill-opacity:0.6;stroke:#0000cd;stroke-linejoin:miter;stroke-opacity:0.6;" x="365.4" xlink:href="#md210549e4b" y="112.32"/>
     <use style="fill:#0000cd;fill-opacity:0.6;stroke:#0000cd;stroke-linejoin:miter;stroke-opacity:0.6;" x="378" xlink:href="#md210549e4b" y="102.24"/>
     <use style="fill:#0000cd;fill-opacity:0.6;stroke:#0000cd;stroke-linejoin:miter;stroke-opacity:0.6;" x="390.6" xlink:href="#md210549e4b" y="92.16"/>
     <use style="fill:#0000cd;fill-opacity:0.6;stroke:#0000cd;stroke-linejoin:miter;stroke-opacity:0.6;" x="403.2" xlink:href="#md210549e4b" y="92.16"/>
     <use style="fill:#0000cd;fill-opacity:0.6;stroke:#0000cd;stroke-linejoin:miter;stroke-opacity:0.6;" x="415.8" xlink:href="#md210549e4b" y="87.12"/>
     <use style="fill:#0000cd;fill-opacity:0.6;stroke:#0000cd;stroke-linejoin:miter;stroke-opacity:0.6;" x="428.4" xlink:href="#md210549e4b" y="87.12"/>
     <use style="fill:#0000cd;fill-opacity:0.6;stroke:#0000cd;stroke-linejoin:miter;stroke-opacity:0.6;" x="441" xlink:href="#md210549e4b" y="82.08"/>
    </g>
   </g>
   <g id="line2d_38">
    <path clip-path="url(#p666488fb93)" d="M 126 359.28 
L 126 228.24 
" style="fill:none;stroke:#c0c0c0;stroke-dasharray:0.75,1.5;stroke-dashoffset:0;stroke-width:1.5;"/>
   </g>
   <g id="line2d_39">
    <path clip-path="url(#p666488fb93)" d="M 352.8 359.28 
L 352.8 112.32 
" style="fill:none;stroke:#c0c0c0;stroke-dasharray:0.75,1.5;stroke-dashoffset:0;stroke-width:1.5;"/>
   </g>
   <g id="patch_8">
    <path d="M 63 384.48 
L 63 51.84 
" style="fill:none;stroke:#000000;stroke-linecap:square;stroke-linejoin:miter;stroke-width:0.8;"/>
   </g>
   <g id="patch_9">
    <path d="M 453.6 384.48 
L 453.6 51.84 
" style="fill:none;stroke:#0000cd;stroke-linecap:square;stroke-linejoin:miter;stroke-width:0.8;"/>
   </g>
   <g id="patch_10">
    <path d="M 63 384.48 
L 453.6 384.48 
" style="fill:none;stroke:#000000;stroke-linecap:square;stroke-linejoin:miter;stroke-width:0.8;"/>
   </g>
   <g id="patch_11">
    <path d="M 63 51.84 
L 453.6 51.84 
" style="fill:none;stroke:#000000;stroke-linecap:square;stroke-linejoin:miter;stroke-width:0.8;"/>
   </g>
   <g id="PathCollection_3">
    <defs>
     <path d="M 0 4.242641 
L 4.242641 0 
L 0 -4.242641 
L -4.242641 0 
z
" id="m5733377bc7" style="stroke:#ff0000;"/>
    </defs>
    <g clip-path="url(#p666488fb93)">
     <use style="fill:#ff0000;stroke:#ff0000;" x="126" xlink:href="#m5733377bc7" y="228.24"/>
    </g>
   </g>
   <g id="PathCollection_4">
    <g clip-path="url(#p666488fb93)">
     <use style="fill:#ff0000;stroke:#ff0000;" x="352.8" xlink:href="#m5733377bc7" y="112.32"/>
    </g>
   </g>
   <g id="text_34">
    <!-- 1 -->
    <g transform="translate(129.15 243.36)scale(0.1 -0.1)">
     <use xlink:href="#Bahnschrift-49"/>
    </g>
   </g>
   <g id="text_35">
    <!-- 24 -->
    <g transform="translate(355.95 127.44)scale(0.1 -0.1)">
     <use xlink:href="#Bahnschrift-50"/>
     <use x="51.660156" xlink:href="#Bahnschrift-52"/>
    </g>
   </g>
   <g id="text_36">
    <!-- (a) Semi-revised data2 -->
    <g transform="translate(333.9 66.96)scale(0.11 -0.11)">
     <use xlink:href="#Bahnschrift-40"/>
     <use x="33.935547" xlink:href="#Bahnschrift-97"/>
     <use x="87.158203" xlink:href="#Bahnschrift-41"/>
     <use x="121.09375" xlink:href="#Bahnschrift-32"/>
     <use x="147.949219" xlink:href="#Bahnschrift-83"/>
     <use x="209.521484" xlink:href="#Bahnschrift-101"/>
     <use x="263.134766" xlink:href="#Bahnschrift-109"/>
     <use x="348.779297" xlink:href="#Bahnschrift-105"/>
     <use x="373.876953" xlink:href="#Bahnschrift-45"/>
     <use x="421.826172" xlink:href="#Bahnschrift-114"/>
     <use x="464.501953" xlink:href="#Bahnschrift-101"/>
     <use x="518.115234" xlink:href="#Bahnschrift-118"/>
     <use x="568.115234" xlink:href="#Bahnschrift-105"/>
     <use x="593.212891" xlink:href="#Bahnschrift-115"/>
     <use x="645.068359" xlink:href="#Bahnschrift-101"/>
     <use x="698.681641" xlink:href="#Bahnschrift-100"/>
     <use x="752.587891" xlink:href="#Bahnschrift-32"/>
     <use x="779.443359" xlink:href="#Bahnschrift-100"/>
     <use x="833.349609" xlink:href="#Bahnschrift-97"/>
     <use x="886.572266" xlink:href="#Bahnschrift-116"/>
     <use x="919.189453" xlink:href="#Bahnschrift-97"/>
     <use x="972.412109" xlink:href="#Bahnschrift-50"/>
    </g>
   </g>
  </g>
 </g>
 <defs>
  <clipPath id="p666488fb93">
   <rect height="332.64" width="390.6" x="63" y="51.84"/>
  </clipPath>
 </defs>
</svg>
